<?xml version="1.0" standalone="no"?>
<!DOCTYPE svg PUBLIC "-//W3C//DTD SVG 20010904//EN"
 "http://www.w3.org/TR/2001/REC-SVG-20010904/DTD/svg10.dtd">
<svg version="1.0" xmlns="http://www.w3.org/2000/svg"
 width="771.000000pt" height="771.000000pt" viewBox="0 0 771.000000 771.000000"
 preserveAspectRatio="xMidYMid meet">
<metadata>
Created by potrace 1.14, written by Peter Selinger 2001-2017
</metadata>
<g transform="translate(0.000000,771.000000) scale(0.100000,-0.100000)"
fill="#000000" stroke="none">
<path d="M0 3855 l0 -3855 3855 0 3855 0 0 3855 0 3855 -3855 0 -3855 0 0
-3855z m3905 3755 c4 -6 -15 -10 -50 -10 -35 0 -54 4 -50 10 3 6 26 10 50 10
24 0 47 -4 50 -10z m5 -40 c0 -5 -20 -10 -45 -10 -25 0 -45 5 -45 10 0 6 20
10 45 10 25 0 45 -4 45 -10z m-40 -130 l0 -60 1736 0 c1177 0 1742 -3 1755
-10 10 -6 19 -14 19 -18 0 -4 -1582 -8 -3515 -9 -2056 -1 -3515 2 -3515 7 0 5
9 14 19 20 13 7 576 10 1748 10 l1728 0 -3 60 c-3 50 -1 60 12 60 13 0 16 -12
16 -60z m90 -724 c42 -28 80 -89 80 -131 0 -22 4 -25 38 -25 122 0 464 -84
636 -157 585 -246 1047 -715 1259 -1278 58 -154 108 -351 131 -522 l6 -43 -34
0 c-38 0 -37 -4 -56 125 -34 220 -126 488 -237 692 -126 231 -356 491 -593
673 -296 226 -718 400 -1055 435 -33 4 -70 8 -82 10 -16 3 -28 -5 -44 -31 -28
-45 -95 -84 -145 -84 -56 1 -117 32 -150 76 -15 22 -29 40 -29 41 -2 6 -217
-29 -298 -48 -288 -67 -625 -223 -846 -390 -167 -125 -398 -371 -529 -561
-161 -234 -296 -611 -324 -903 -3 -27 -7 -30 -42 -33 l-39 -3 7 63 c30 272
152 611 309 860 136 214 348 453 533 600 296 236 712 411 1102 465 109 15 122
19 122 37 0 11 9 39 20 62 47 97 170 130 260 70z m128 -387 c233 -25 452 -89
655 -191 310 -155 492 -295 705 -543 205 -239 317 -457 398 -775 17 -69 54
-311 54 -356 0 -1 24 10 53 25 78 38 167 37 232 -4 60 -37 112 -103 120 -153
11 -64 8 -62 104 -62 86 0 89 1 95 24 9 36 55 87 93 102 47 20 92 17 138 -9
57 -32 85 -79 85 -142 0 -108 -99 -188 -202 -162 -44 11 -105 68 -113 108 l-7
29 -94 0 c-85 0 -94 -2 -94 -19 0 -28 -26 -85 -56 -120 -73 -87 -196 -112
-301 -60 l-53 26 -5 -36 c-49 -303 -151 -588 -291 -803 -117 -183 -283 -363
-476 -518 -279 -225 -674 -384 -1043 -420 -133 -13 -370 -13 -475 0 -360 45
-742 202 -1008 415 -267 213 -480 476 -607 750 -85 181 -131 338 -170 577 l-6
37 -57 -31 c-76 -40 -155 -37 -228 8 -52 31 -108 105 -122 158 l-8 31 -91 3
c-89 3 -91 2 -97 -22 -9 -36 -55 -87 -93 -102 -71 -30 -158 -8 -196 49 -59 90
-31 199 64 247 79 41 165 11 209 -72 l24 -47 87 -3 87 -3 12 53 c37 164 214
247 358 167 24 -14 46 -25 47 -25 1 0 5 39 9 88 28 349 165 682 411 997 109
139 327 342 472 438 300 200 617 315 958 346 133 12 313 12 423 0z m-2393
-2426 c71 -415 283 -813 599 -1129 173 -172 312 -277 531 -402 211 -119 490
-211 752 -248 l122 -17 30 32 c73 78 171 80 259 6 33 -28 34 -28 134 -21 181
13 426 84 668 195 235 107 440 252 641 451 299 297 495 651 584 1055 8 39 18
80 20 93 4 17 12 22 36 22 l32 0 -7 -62 c-15 -133 -109 -405 -207 -599 -165
-329 -452 -651 -759 -851 -318 -208 -791 -378 -1052 -378 l-48 0 0 -35 c0 -94
-100 -175 -197 -160 -76 11 -143 88 -143 165 0 29 -2 30 -44 30 -69 0 -265 36
-399 74 -368 104 -744 331 -1022 617 -288 297 -491 668 -581 1061 -31 139 -31
138 11 138 32 0 35 -3 40 -37z m1477 -2590 c-343 -2 -901 -2 -1240 0 -339 1
-59 2 623 2 682 0 960 -1 617 -2z m1636 0 c-125 -2 -332 -2 -460 0 -128 1 -26
2 227 2 253 0 358 -1 233 -2z m1005 0 c-34 -2 -93 -2 -130 0 -37 2 -9 3 62 3
72 0 102 -1 68 -3z m575 0 c-87 -2 -229 -2 -315 0 -87 1 -16 3 157 3 173 0
244 -2 158 -3z m-2509 -298 c9 -138 15 -360 12 -422 -1 -7 -13 -13 -28 -13
l-26 0 6 268 c6 235 13 349 23 340 1 -2 7 -79 13 -173z m-79 21 c0 -2 -36 -27
-80 -55 -44 -28 -80 -48 -80 -45 0 4 151 104 158 104 1 0 2 -2 2 -4z m170 -38
c0 -13 -5 -9 -31 19 l-24 26 27 -19 c15 -10 28 -22 28 -26z m-161 8 c-6 -5
-228 -150 -466 -304 -112 -72 -203 -127 -203 -122 0 4 30 27 68 51 122 77 547
353 571 371 13 10 26 16 29 13 3 -3 3 -7 1 -9z m145 -21 c34 -26 52 -32 41
-15 -11 18 6 11 44 -19 20 -15 47 -34 61 -41 14 -7 27 -16 30 -19 3 -4 105
-73 228 -154 122 -81 222 -152 222 -157 0 -13 -17 -13 -22 -1 -4 12 -498 344
-504 338 -7 -7 26 -32 236 -177 113 -78 207 -146 209 -152 5 -14 10 -17 -203
131 -180 126 -386 279 -386 287 0 9 13 3 44 -21z m-184 -29 c0 -14 -537 -373
-545 -364 -3 3 529 363 543 367 1 1 2 -1 2 -3z m-410 -464 c0 -5 15 -7 33 -6
l32 3 -30 -8 c-16 -4 -36 -5 -42 -3 -15 5 -17 22 -3 22 6 0 10 -4 10 -8z m427
-29 c1 -21 -1 -31 -3 -22 -4 14 -24 18 -107 23 -56 4 -129 10 -162 14 -57 7
-54 7 55 13 63 3 138 6 165 7 l51 2 1 -37z m160 5 c-3 -7 -5 -2 -5 12 0 14 2
19 5 13 2 -7 2 -19 0 -25z m141 25 c-10 -2 -28 -2 -40 0 -13 2 -5 4 17 4 22 1
32 -1 23 -4z m292 -10 c-24 -10 -49 -13 -80 -9 -25 4 -76 9 -115 13 -38 3 -72
7 -74 9 -2 2 65 4 150 3 147 -1 152 -1 119 -16z m-492 -71 c2 -13 -2 -22 -10
-22 -10 0 -10 -2 1 -9 7 -5 12 -14 10 -20 -6 -18 -49 22 -49 46 0 11 3 23 7
27 14 13 38 1 41 -22z"/>
<path d="M3825 6661 c-39 -17 -67 -58 -69 -100 -2 -91 109 -137 174 -72 67 67
39 156 -55 174 -17 3 -39 2 -50 -2z"/>
<path d="M3665 6293 c-278 -33 -454 -83 -690 -198 -604 -292 -1021 -855 -1100
-1485 -8 -69 -17 -140 -20 -158 -3 -23 3 -43 21 -69 13 -20 27 -53 30 -75 l7
-38 123 0 c119 0 124 1 139 24 35 53 105 57 152 10 25 -25 28 -25 194 -27 228
-3 231 -21 4 -25 l-171 -2 -11 -30 c-13 -33 -69 -64 -100 -54 -40 13 -63 28
-69 46 -5 16 -18 18 -133 18 l-127 0 -12 -46 c-7 -26 -21 -59 -31 -73 -19 -26
-18 -29 11 -186 83 -453 269 -785 625 -1115 283 -262 667 -443 1068 -505 163
-26 480 -17 665 19 307 58 598 188 855 381 151 114 368 346 467 500 141 218
252 528 295 825 8 49 6 60 -19 105 -15 28 -28 60 -28 73 0 25 7 24 -147 22
l-102 -1 -36 -36 c-32 -32 -40 -35 -73 -30 -75 12 -106 90 -56 141 40 39 103
37 138 -4 l25 -30 126 1 c124 1 125 1 125 24 0 13 13 47 28 76 23 44 27 61 21
94 -4 22 -12 86 -18 142 -22 204 -80 403 -176 598 -95 193 -191 321 -380 510
-161 161 -310 267 -527 375 -229 114 -432 177 -640 199 -90 10 -383 13 -453 4z
m215 -108 c0 -60 -3 -75 -15 -75 -12 0 -15 14 -15 68 0 38 3 72 7 75 17 18 23
1 23 -68z m-130 40 c0 -8 -4 -15 -10 -15 -5 0 -10 7 -10 15 0 8 5 15 10 15 6
0 10 -7 10 -15z m67 9 c-3 -3 -12 -4 -19 -1 -8 3 -5 6 6 6 11 1 17 -2 13 -5z
m163 -9 c0 -8 -9 -15 -20 -15 -11 0 -20 7 -20 15 0 8 9 15 20 15 11 0 20 -7
20 -15z m-290 -4 c0 -6 -4 -13 -10 -16 -5 -3 -10 1 -10 9 0 9 5 16 10 16 6 0
10 -4 10 -9z m355 -1 c-3 -5 -10 -10 -16 -10 -5 0 -9 5 -9 10 0 6 7 10 16 10
8 0 12 -4 9 -10z m77 -12 c-12 -12 -35 -1 -27 12 3 5 13 6 21 3 10 -4 12 -9 6
-15z m-492 2 c0 -5 -7 -10 -15 -10 -8 0 -15 5 -15 10 0 6 7 10 15 10 8 0 15
-4 15 -10z m-70 -10 c0 -5 -9 -10 -20 -10 -11 0 -20 5 -20 10 0 6 9 10 20 10
11 0 20 -4 20 -10z m645 0 c8 -13 -5 -13 -25 0 -13 8 -13 10 2 10 9 0 20 -4
23 -10z m-715 -9 c0 -14 -18 -23 -30 -16 -6 4 -8 11 -5 16 8 12 35 12 35 0z
m790 -7 c0 -2 -7 -4 -15 -4 -8 0 -15 4 -15 10 0 5 7 7 15 4 8 -4 15 -8 15 -10z
m-870 -14 c0 -5 -7 -10 -15 -10 -8 0 -15 5 -15 10 0 6 7 10 15 10 8 0 15 -4
15 -10z m930 0 c0 -5 -4 -10 -9 -10 -6 0 -13 5 -16 10 -3 6 1 10 9 10 9 0 16
-4 16 -10z m-1000 -21 c0 -5 -7 -9 -15 -9 -15 0 -20 12 -9 23 8 8 24 -1 24
-14z m1070 0 c0 -5 -7 -9 -15 -9 -15 0 -20 12 -9 23 8 8 24 -1 24 -14z m-1150
-19 c0 -5 -7 -10 -15 -10 -8 0 -15 5 -15 10 0 6 7 10 15 10 8 0 15 -4 15 -10z
m1210 6 c0 -11 -19 -15 -25 -6 -3 5 1 10 9 10 9 0 16 -2 16 -4z m65 -17 c10
-15 -1 -23 -20 -15 -9 3 -13 10 -10 16 8 13 22 13 30 -1z m-1345 -19 c0 -5 -9
-10 -21 -10 -11 0 -17 5 -14 10 3 6 13 10 21 10 8 0 14 -4 14 -10z m723 -32
c24 -28 21 -55 -8 -82 -23 -21 -25 -30 -25 -110 0 -70 -3 -86 -15 -86 -12 0
-15 16 -15 86 0 80 -2 88 -25 106 -32 25 -32 62 0 94 29 29 58 26 88 -8z m691
11 c-8 -14 -24 -10 -24 6 0 9 6 12 15 9 8 -4 12 -10 9 -15z m-1496 -10 c-2 -6
-8 -10 -13 -10 -5 0 -11 4 -13 10 -2 6 4 11 13 11 9 0 15 -5 13 -11z m375 -31
c39 -46 3 -118 -59 -118 -23 0 -38 8 -53 26 -29 36 -26 60 9 96 25 24 36 29
58 24 15 -4 35 -16 45 -28z m851 11 c46 -36 28 -129 -26 -129 -16 0 -18 -9
-18 -78 0 -69 -3 -81 -23 -101 -20 -18 -26 -20 -36 -7 -9 11 -7 15 14 20 24 6
25 9 25 84 0 71 -2 81 -25 102 -39 37 -29 101 18 120 33 13 42 12 71 -11z
m341 11 c3 -5 -1 -10 -9 -10 -8 0 -18 5 -21 10 -3 6 1 10 9 10 8 0 18 -4 21
-10z m-1640 -20 c3 -6 -1 -13 -10 -16 -19 -8 -30 0 -20 15 8 14 22 14 30 1z
m1706 -13 c-1 -12 -15 -9 -19 4 -3 6 1 10 8 8 6 -3 11 -8 11 -12z m-1789 -32
c0 -5 -5 -11 -11 -13 -6 -2 -11 4 -11 13 0 9 5 15 11 13 6 -2 11 -8 11 -13z
m1873 -15 c3 -6 -1 -13 -10 -16 -19 -8 -30 0 -20 15 8 14 22 14 30 1z m-737
-12 c16 -16 15 -43 -3 -58 -10 -9 -15 -32 -15 -76 0 -36 -4 -64 -10 -64 -6 0
-10 28 -10 64 0 36 -4 68 -10 71 -14 9 -12 62 3 68 21 9 32 8 45 -5z m-1198
-6 c0 -13 -12 -22 -22 -16 -10 6 -1 24 13 24 5 0 9 -4 9 -8z m808 -4 c16 -16
15 -43 -3 -58 -10 -9 -15 -32 -15 -76 0 -36 -4 -64 -10 -64 -6 0 -10 29 -10
68 -1 42 -6 74 -15 86 -28 36 21 76 53 44z m836 -34 c21 -21 20 -41 -4 -61
-17 -15 -20 -30 -20 -109 0 -88 -1 -94 -27 -114 -19 -15 -29 -18 -37 -10 -8 8
-3 17 17 32 26 19 27 23 27 108 0 66 -4 91 -15 100 -29 24 -11 70 26 70 10 0
25 -7 33 -16z m-1704 -9 c0 -8 -7 -15 -15 -15 -8 0 -15 7 -15 15 0 8 7 15 15
15 8 0 15 -7 15 -15z m418 -14 c2 -13 -1 -28 -7 -34 -6 -6 -11 -48 -11 -96 0
-78 3 -88 25 -110 37 -34 20 -46 -21 -13 l-34 27 0 93 c0 50 -4 92 -9 92 -16
0 -23 40 -10 56 19 23 63 14 67 -15z m1670 11 c2 -7 -3 -12 -12 -12 -9 0 -16
7 -16 16 0 17 22 14 28 -4z m-1441 -149 c33 -27 22 -43 -15 -22 -24 13 -27 21
-30 78 -2 35 1 71 5 80 5 10 9 -9 11 -49 2 -57 6 -68 29 -87z m-707 117 c0 -5
-7 -10 -15 -10 -8 0 -15 5 -15 10 0 6 7 10 15 10 8 0 15 -4 15 -10z m2210 -10
c0 -5 7 -10 15 -10 8 0 15 -4 15 -10 0 -15 -19 -12 -36 4 -16 17 -18 26 -4 26
6 0 10 -4 10 -10z m-2273 -46 c-9 -9 -28 6 -21 18 4 6 10 6 17 -1 6 -6 8 -13
4 -17z m251 14 c15 -15 16 -54 2 -63 -5 -3 -10 -27 -10 -53 0 -47 1 -48 89
-127 78 -70 106 -105 85 -105 -3 0 -48 39 -100 86 -94 86 -94 87 -94 135 0 38
-4 51 -20 59 -35 19 -20 80 20 80 9 0 21 -5 28 -12z m1876 -4 c13 -35 6 -54
-21 -60 -27 -5 -28 -7 -25 -65 3 -45 0 -59 -10 -59 -7 0 -49 -36 -93 -80 -80
-80 -95 -91 -95 -67 0 11 107 116 153 149 14 11 17 29 18 98 1 47 3 88 6 93 8
14 61 7 67 -9z m236 -40 c0 -14 -3 -14 -15 -4 -8 7 -15 14 -15 16 0 2 7 4 15
4 8 0 15 -7 15 -16z m-2420 -9 c0 -8 -4 -15 -9 -15 -13 0 -22 16 -14 24 11 11
23 6 23 -9z m1229 -19 c15 -17 -3 -60 -21 -54 -23 8 -32 36 -19 52 17 20 25
20 40 2z m1251 -22 c0 -9 -5 -14 -12 -12 -18 6 -21 28 -4 28 9 0 16 -7 16 -16z
m-2540 -15 c0 -11 -4 -17 -10 -14 -5 3 -10 13 -10 21 0 8 5 14 10 14 6 0 10
-9 10 -21z m2608 -41 c-6 -18 -28 -21 -28 -4 0 9 7 16 16 16 9 0 14 -5 12 -12z
m-2660 -17 c3 -8 -1 -12 -9 -9 -7 2 -15 10 -17 17 -3 8 1 12 9 9 7 -2 15 -10
17 -17z m1170 -6 c63 -19 117 -64 134 -111 14 -39 24 -43 33 -13 4 11 21 36
37 55 87 99 228 104 413 15 155 -75 290 -232 297 -344 2 -31 8 -42 35 -58 53
-33 80 -107 54 -148 -6 -10 6 -28 43 -65 39 -38 55 -63 64 -98 16 -62 15 -110
-2 -133 -13 -18 -10 -23 25 -57 59 -57 72 -91 77 -194 3 -66 0 -98 -10 -118
-13 -25 -12 -32 8 -74 18 -35 23 -65 24 -117 0 -92 -14 -138 -51 -169 l-31
-26 21 -44 c41 -83 5 -176 -68 -176 -19 0 -21 -6 -21 -68 0 -123 -37 -202
-123 -260 -23 -16 -57 -33 -74 -36 -28 -7 -33 -12 -33 -37 0 -60 -49 -117
-112 -133 -16 -3 -34 -18 -42 -34 -64 -123 -259 -149 -373 -49 -70 62 -78 90
-81 300 l-4 189 24 -4 c23 -3 23 -4 28 -178 4 -137 9 -181 22 -205 36 -67 103
-105 181 -105 63 0 108 25 144 80 34 53 42 60 66 60 47 0 93 54 97 115 1 17 1
55 1 85 l-2 55 -33 -38 c-37 -41 -57 -120 -37 -140 6 -6 11 -18 11 -26 -1 -13
-3 -13 -14 2 -9 12 -16 14 -21 8 -13 -23 -35 -11 -35 19 0 17 5 30 10 30 6 0
10 18 10 39 0 34 7 46 54 93 36 36 55 64 58 84 l3 29 108 0 107 0 0 70 0 71
-33 12 c-18 7 -74 12 -123 12 l-89 0 -19 -35 c-24 -45 -78 -79 -111 -71 -20 5
-31 -3 -74 -56 -50 -62 -51 -63 -44 -118 5 -47 12 -61 48 -96 47 -45 59 -84
44 -138 -33 -118 -168 -152 -248 -61 -56 64 -50 147 14 204 19 17 50 33 70 37
l35 6 0 79 c0 61 3 79 14 79 20 0 86 77 86 100 0 17 3 19 19 10 11 -5 28 -10
39 -10 25 0 72 37 72 57 0 9 7 25 17 35 13 15 32 18 114 18 90 0 97 1 92 18
-13 52 62 137 109 124 18 -4 20 -2 13 14 -4 10 -10 36 -13 57 -4 34 -2 37 22
37 23 0 26 -4 26 -36 0 -47 18 -41 48 16 15 30 22 62 22 101 0 58 -16 119 -31
119 -5 0 -18 -18 -29 -40 -20 -39 -22 -40 -73 -40 -52 0 -54 -1 -147 -86 -90
-83 -94 -87 -97 -132 -3 -67 -19 -96 -63 -121 -57 -32 -117 -12 -79 26 9 9 16
9 30 0 36 -22 84 34 77 90 -3 26 -5 26 -81 -42 -61 -52 -81 -65 -88 -54 -10
17 7 36 109 121 41 35 121 102 177 151 92 78 107 87 143 87 32 0 43 5 57 27
10 15 18 34 19 42 1 9 12 31 25 49 13 19 26 53 28 76 7 58 -21 149 -57 189
l-29 32 -1 -150 0 -150 -79 -79 c-53 -53 -84 -77 -97 -74 -24 4 -32 38 -9 38
9 0 45 29 81 64 l64 64 0 113 c0 149 -9 219 -27 219 -17 0 -38 44 -30 64 9 23
48 20 54 -4 7 -27 26 -20 37 12 7 19 4 35 -11 64 -10 21 -24 39 -29 41 -5 2
-34 -18 -64 -45 l-54 -48 -4 -97 -4 -97 35 -39 c41 -45 55 -98 38 -139 -7 -15
-39 -56 -72 -90 -60 -63 -62 -64 -103 -58 -22 3 -46 3 -52 -2 -18 -12 -27 -53
-25 -116 l3 -59 -91 -86 c-73 -69 -91 -92 -91 -114 0 -19 -4 -27 -12 -25 -8 3
-14 27 -16 61 -3 51 -1 57 17 57 11 0 49 26 85 58 l66 57 0 72 c0 40 5 83 12
97 13 31 54 60 63 46 3 -6 21 -10 40 -10 28 0 41 9 86 61 37 43 52 69 52 90 0
42 -21 76 -55 88 -56 20 -108 -23 -108 -89 0 -67 -155 -203 -175 -152 -3 8 -4
16 -3 17 2 1 19 11 38 23 57 34 97 83 103 126 4 21 18 56 32 77 20 31 33 40
65 45 l40 7 0 106 0 105 61 59 62 58 -23 25 c-19 20 -33 24 -77 24 l-53 0 0
-44 c0 -54 -45 -119 -105 -153 -52 -30 -137 -31 -182 -3 l-32 19 -43 -54 c-35
-45 -45 -52 -60 -44 -26 14 -23 21 27 77 l45 50 -20 43 c-23 52 -26 116 -6
163 14 33 13 34 -15 55 -16 12 -29 28 -29 36 0 25 21 28 44 6 12 -12 28 -21
34 -21 21 0 13 28 -15 50 l-26 20 28 30 c31 32 49 37 61 18 4 -7 -2 -18 -14
-26 -25 -17 -28 -35 -8 -51 11 -10 21 -9 45 3 53 28 125 16 188 -30 39 -29 62
-30 97 -3 38 30 32 45 -24 64 -48 16 -126 69 -201 137 -33 30 -38 40 -44 99
-7 73 0 86 34 63 19 -13 21 -22 16 -62 l-6 -47 68 -59 c63 -55 148 -104 160
-93 3 3 -8 33 -23 67 -38 85 -148 187 -258 239 -113 55 -142 62 -88 22 46 -34
45 -31 47 -143 l1 -78 -28 27 c-24 23 -27 31 -21 70 8 57 -9 87 -62 113 -60
29 -116 26 -155 -7 -52 -44 -70 -99 -70 -217 0 -57 -3 -198 -7 -315 l-6 -212
-26 3 -25 3 -4 280 c-1 154 -8 303 -13 332 -12 62 -57 128 -103 150 -33 15
-37 15 -89 -6 -79 -32 -91 -49 -84 -116 3 -30 2 -55 -2 -55 -4 0 -17 -9 -30
-21 -28 -27 -33 -21 -21 22 6 19 10 60 9 92 -1 31 0 59 2 61 2 2 22 13 44 24
64 33 18 25 -67 -12 -93 -40 -195 -111 -237 -165 -33 -42 -86 -149 -78 -157
10 -10 97 39 160 92 73 59 88 90 64 128 -15 22 -14 24 9 35 37 16 44 7 44 -57
l0 -57 -80 -70 c-80 -69 -108 -88 -183 -119 -47 -20 -46 -39 5 -68 l38 -22 22
21 c64 58 176 72 239 30 53 -36 54 -36 69 -27 12 7 7 17 -25 50 -21 22 -47 40
-58 40 -24 0 -19 33 6 38 19 4 80 -53 114 -105 16 -24 16 -26 -1 -39 -11 -7
-24 -15 -30 -17 -8 -3 -7 -12 2 -31 20 -46 15 -137 -12 -189 -14 -29 -19 -47
-12 -47 7 0 31 -20 55 -44 40 -41 42 -44 25 -61 -17 -16 -20 -14 -66 38 l-49
56 -34 -20 c-72 -43 -192 -14 -243 59 -25 36 -45 98 -39 123 5 17 0 19 -48 19
-42 0 -60 -5 -82 -24 l-28 -24 47 -41 c76 -68 88 -94 88 -200 0 -85 1 -91 20
-91 59 0 110 -62 110 -133 0 -29 7 -41 44 -70 24 -20 55 -42 70 -48 32 -15 31
-43 -2 -47 -17 -3 -33 8 -61 40 -21 24 -50 49 -64 57 -22 12 -24 18 -20 53 7
49 -11 84 -49 97 -58 20 -113 -25 -112 -91 1 -34 9 -48 55 -94 l53 -54 51 6
c43 5 53 3 70 -16 17 -18 20 -37 21 -108 l0 -85 88 -81 c81 -75 88 -83 84
-115 -4 -43 -25 -52 -34 -14 -4 16 -44 67 -96 120 l-89 91 2 75 c1 41 -2 80
-6 87 -5 8 -23 10 -60 5 l-52 -6 -66 74 c-61 68 -67 79 -67 118 0 46 28 105
55 115 12 5 15 27 15 108 0 113 -2 116 -89 176 l-34 23 -18 -22 c-20 -25 -26
-95 -10 -106 6 -3 15 4 21 15 6 12 21 20 36 20 22 0 25 -4 22 -32 -2 -27 -8
-34 -30 -38 -20 -4 -25 -9 -19 -19 5 -8 7 -84 4 -170 l-5 -156 71 -70 c68 -66
86 -95 59 -95 -7 0 -44 32 -83 70 -38 39 -73 70 -77 70 -5 0 -8 73 -8 163 l-1
162 -34 -38 c-76 -87 -85 -209 -20 -287 7 -8 16 -28 19 -45 11 -45 24 -55 74
-55 42 0 50 -5 111 -62 37 -35 123 -112 194 -171 70 -59 127 -112 127 -117 0
-29 -30 -14 -101 50 -83 75 -90 75 -69 -2 13 -44 19 -49 69 -53 68 -5 82 -35
17 -35 -84 0 -126 44 -126 132 0 46 -4 51 -163 189 -19 16 -45 26 -80 29 -50
5 -53 7 -72 47 -11 23 -23 42 -26 43 -3 0 -14 -18 -24 -40 -24 -52 -16 -131
21 -208 l27 -57 7 38 c9 49 24 65 45 47 12 -10 14 -23 9 -57 -5 -35 -3 -43 10
-43 8 0 30 -13 47 -28 24 -21 32 -39 36 -74 l5 -46 42 0 c170 0 166 1 181 -35
18 -44 39 -60 65 -52 16 5 36 -8 93 -64 l73 -70 -4 -71 -4 -70 34 0 c64 0 148
-80 148 -139 0 -41 -41 -113 -79 -138 -66 -44 -158 -21 -201 49 -39 65 -18
161 45 202 23 15 25 23 25 85 l0 68 -59 56 c-40 38 -65 55 -75 51 -22 -9 -64
21 -88 62 l-20 34 -92 0 c-65 0 -103 -5 -124 -16 -31 -15 -32 -17 -32 -82 l0
-67 104 3 105 3 6 -34 c5 -23 24 -52 61 -88 46 -46 54 -59 54 -91 0 -20 5 -40
10 -43 6 -3 10 -17 10 -31 0 -17 -5 -24 -20 -24 -26 0 -40 29 -40 84 0 40 -4
47 -40 76 l-40 32 0 -64 c0 -90 51 -172 116 -184 20 -4 36 -14 39 -25 10 -30
54 -78 88 -96 77 -39 194 -8 241 65 36 54 45 110 46 270 l0 142 26 0 26 0 -4
-182 c-3 -165 -6 -187 -25 -224 -46 -87 -118 -135 -214 -142 -95 -7 -189 36
-225 103 -12 22 -28 36 -46 40 -40 9 -85 58 -105 116 -16 43 -23 51 -56 61
-49 15 -110 68 -144 126 -22 38 -28 61 -31 132 -4 86 -5 88 -35 101 -65 29
-89 108 -54 178 9 18 11 33 6 37 -27 16 -62 113 -67 181 -4 64 -1 79 22 126
25 52 25 56 11 90 -38 91 -6 246 63 309 37 34 38 35 24 69 -27 66 11 181 77
230 25 19 28 25 23 65 -6 59 13 100 60 130 34 22 38 28 38 67 1 146 211 339
426 391 78 19 120 19 182 1z m-509 -50 c28 -30 24 -39 -13 -26 -16 7 -26 18
-26 31 0 26 10 25 39 -5z m1351 -20 c-16 -17 -27 -22 -34 -15 -6 6 -2 18 14
35 16 17 27 22 34 15 6 -6 2 -18 -14 -35z m684 30 c-4 -8 -11 -15 -16 -15 -6
0 -5 6 2 15 7 8 14 15 16 15 2 0 1 -7 -2 -15z m-2764 -21 c0 -8 -4 -12 -10 -9
-5 3 -10 10 -10 16 0 5 5 9 10 9 6 0 10 -7 10 -16z m391 -15 c15 -15 19 -27
14 -50 -6 -28 -1 -36 74 -106 45 -41 81 -79 81 -84 0 -21 -25 -4 -102 71 -50
48 -89 78 -97 75 -8 -3 -24 2 -37 10 -28 18 -32 60 -7 87 21 24 48 23 74 -3z
m2067 -2 c21 -16 14 -65 -12 -82 -44 -29 -97 14 -81 66 11 35 58 43 93 16z
m412 3 c0 -5 -2 -10 -4 -10 -3 0 -8 5 -11 10 -3 6 -1 10 4 10 6 0 11 -4 11
-10z m-60 -36 c0 -8 -4 -12 -10 -9 -5 3 -10 10 -10 16 0 5 5 9 10 9 6 0 10 -7
10 -16z m-2852 -13 c3 -8 -1 -12 -9 -9 -7 2 -15 10 -17 17 -3 8 1 12 9 9 7 -2
15 -10 17 -17z m2952 -6 c14 -19 14 -19 -2 -6 -10 7 -18 18 -18 24 0 6 1 8 3
6 1 -2 9 -13 17 -24z m-3030 11 c0 -3 -4 -8 -10 -11 -5 -3 -10 -1 -10 4 0 6 5
11 10 11 6 0 10 -2 10 -4z m1314 -22 c33 -32 10 -79 -36 -72 -19 2 -24 10 -26
40 -3 35 1 40 40 47 4 0 14 -6 22 -15z m456 2 c28 -35 -11 -93 -47 -70 -36 22
-23 84 17 84 10 0 23 -7 30 -14z m-1810 -30 c0 -2 -8 -10 -17 -17 -16 -13 -17
-12 -4 4 13 16 21 21 21 13z m70 -6 c0 -5 -4 -10 -10 -10 -5 0 -10 5 -10 10 0
6 5 10 10 10 6 0 10 -4 10 -10z m210 -5 c7 -8 10 -25 8 -37 -4 -19 13 -39 91
-111 53 -48 126 -113 164 -143 65 -54 80 -74 55 -74 -12 1 -144 114 -315 270
-58 53 -75 85 -56 103 11 12 40 8 53 -8z m2211 -52 c-43 -51 -93 -93 -111 -93
-5 0 -10 2 -10 3 0 2 33 38 73 79 78 82 115 90 48 11z m377 55 c20 -20 14 -47
-15 -65 -16 -9 -64 -52 -108 -94 -93 -90 -230 -209 -239 -209 -3 0 -6 8 -6 18
1 9 35 44 77 77 120 94 235 206 224 219 -32 39 31 90 67 54z m156 -9 c-3 -5
-10 -7 -15 -3 -5 3 -7 10 -3 15 3 5 10 7 15 3 5 -3 7 -10 3 -15z m94 1 c7 -11
9 -20 4 -20 -4 0 -13 9 -20 20 -7 11 -9 20 -4 20 4 0 13 -9 20 -20z m-2360
-43 c2 -10 -3 -17 -11 -17 -16 0 -30 24 -19 34 10 10 27 1 30 -17z m1626 14
c3 -4 -4 -17 -15 -27 -17 -15 -22 -16 -29 -4 -5 9 -5 19 2 27 12 15 34 17 42
4z m-914 -16 c10 -12 10 -21 1 -41 -6 -14 -11 -68 -11 -120 0 -86 -2 -95 -17
-92 -15 3 -18 17 -21 98 -2 52 -7 99 -12 104 -23 23 -3 66 31 66 9 0 22 -7 29
-15z m234 -7 c8 -13 6 -22 -8 -37 -15 -17 -17 -34 -15 -110 4 -89 3 -91 -18
-91 -22 0 -23 3 -23 98 0 53 -4 104 -9 111 -6 9 -6 22 0 34 13 22 57 20 73 -5z
m1454 4 c2 -7 -2 -10 -12 -6 -9 3 -16 11 -16 16 0 13 23 5 28 -10z m-3148 -10
c0 -13 -12 -22 -22 -16 -10 6 -1 24 13 24 5 0 9 -4 9 -8z m3061 -5 c-1 -12
-15 -9 -19 4 -3 6 1 10 8 8 6 -3 11 -8 11 -12z m-1756 -7 c3 -6 -1 -7 -9 -4
-18 7 -21 14 -7 14 6 0 13 -4 16 -10z m1235 -42 c-88 -75 -118 -98 -129 -98
-20 0 -11 15 29 44 21 16 56 46 76 67 27 28 41 36 49 28 7 -7 0 -20 -25 -41z
m-1925 -34 c37 -34 63 -64 57 -67 -12 -8 -164 122 -156 134 7 13 21 4 99 -67z
m2555 66 c0 -5 -2 -10 -4 -10 -3 0 -8 5 -11 10 -3 6 -1 10 4 10 6 0 11 -4 11
-10z m-1863 -38 c28 -33 29 -52 3 -84 -25 -33 -49 -39 -88 -22 -54 22 -55 104
-2 131 32 16 59 8 87 -25z m576 6 c23 -27 22 -67 -5 -95 -57 -60 -147 14 -107
88 22 42 79 45 112 7z m1349 -56 c23 -37 49 -77 56 -87 37 -58 137 -283 129
-291 -2 -2 -19 33 -37 79 -51 123 -157 311 -187 330 -12 7 -19 37 -9 37 2 0
24 -31 48 -68z m-3291 35 c-1 -12 -15 -9 -19 4 -3 6 1 10 8 8 6 -3 11 -8 11
-12z m143 -49 c9 -12 16 -29 16 -38 0 -21 185 -185 305 -270 55 -40 101 -78
103 -86 5 -21 -2 -18 -80 38 -121 86 -159 116 -249 198 -82 75 -88 79 -123 73
-22 -3 -42 -1 -51 7 -18 15 -20 71 -3 88 20 20 65 14 82 -10z m517 -53 c22
-20 37 -40 34 -45 -4 -6 -35 15 -70 46 -36 32 -62 61 -59 66 6 9 31 -9 95 -67z
m1911 2 c-43 -43 -54 -49 -62 -37 -7 11 -4 19 13 30 12 8 36 28 52 45 17 17
34 27 40 23 5 -5 -12 -30 -43 -61z m575 47 c15 -24 15 -29 2 -53 -13 -22 -22
-26 -61 -26 -42 0 -51 -5 -100 -51 -97 -93 -228 -193 -335 -258 -8 -4 -13 -2
-13 7 0 8 33 36 73 62 160 107 327 255 327 290 0 56 76 76 107 29z m-1968 -1
c8 -14 2 -23 -32 -45 -62 -41 -80 -18 -26 33 36 34 44 35 58 12z m909 -17 c20
-19 35 -37 32 -40 -3 -2 -24 -2 -48 1 -40 5 -42 7 -42 39 0 43 11 43 58 0z
m-2118 -21 c0 -8 -4 -15 -10 -15 -5 0 -10 7 -10 15 0 8 5 15 10 15 6 0 10 -7
10 -15z m3275 -4 c7 -12 -12 -24 -25 -16 -11 7 -4 25 10 25 5 0 11 -4 15 -9z
m-1815 -240 c0 -213 -1 -220 -21 -226 -35 -12 -107 84 -82 109 4 4 21 -9 38
-29 l30 -37 -3 187 c-2 102 -1 193 2 201 3 8 12 14 21 14 13 0 15 -29 15 -219z
m381 19 c-3 -179 -2 -193 13 -181 9 7 16 22 16 32 0 28 19 33 29 7 10 -26 7
-32 -31 -77 -23 -27 -31 -30 -48 -21 -18 10 -20 21 -20 118 l0 108 -45 44
c-48 47 -53 61 -31 79 11 10 20 3 47 -34 18 -25 34 -45 37 -45 2 0 1 39 -3 86
l-7 86 24 -4 23 -3 -4 -195z m-1298 127 c34 -28 74 -62 90 -73 25 -21 36 -44
20 -44 -5 0 -41 27 -82 60 -40 32 -82 65 -94 73 -12 8 -17 18 -13 25 10 17 11
17 79 -41z m2257 43 c0 -10 -179 -160 -192 -160 -24 0 0 31 58 75 37 27 73 60
81 72 15 23 53 32 53 13z m510 -41 c0 -5 -4 -9 -10 -9 -5 0 -10 7 -10 16 0 8
5 12 10 9 6 -3 10 -10 10 -16z m-3342 0 c-2 -6 -8 -10 -13 -10 -5 0 -11 4 -13
10 -2 6 4 11 13 11 9 0 15 -5 13 -11z m1586 -28 c7 -11 -53 -92 -71 -99 -19
-6 -16 41 5 77 17 30 54 42 66 22z m-1001 -83 c40 -28 74 -53 76 -55 3 -2 0
-8 -5 -13 -7 -7 -30 5 -70 36 -32 25 -67 52 -78 59 -13 10 -16 19 -11 32 5 11
9 14 12 6 2 -7 37 -36 76 -65z m2262 52 c3 -5 -7 -16 -22 -24 -15 -7 -55 -35
-88 -61 -49 -38 -61 -43 -64 -29 -1 9 3 21 11 25 8 4 41 28 74 53 61 46 78 53
89 36z m540 -9 c7 -12 -12 -24 -25 -16 -11 7 -4 25 10 25 5 0 11 -4 15 -9z
m-3431 -16 c-4 -8 -10 -15 -15 -15 -5 0 -9 7 -9 15 0 8 7 15 15 15 9 0 12 -6
9 -15z m3466 -81 c0 -8 -4 -14 -9 -14 -11 0 -22 26 -14 34 9 9 23 -3 23 -20z
m-3502 5 c-2 -6 -8 -10 -13 -10 -5 0 -11 4 -13 10 -2 6 4 11 13 11 9 0 15 -5
13 -11z m186 -5 c9 -8 16 -25 16 -36 0 -19 4 -20 63 -16 l62 5 59 -69 59 -68
90 0 c78 0 96 -3 124 -22 18 -13 33 -31 33 -41 0 -16 -6 -14 -42 12 -39 29
-47 31 -129 31 l-87 0 -60 64 c-59 64 -60 64 -121 68 -38 2 -62 -1 -65 -8 -14
-37 -96 -5 -96 37 0 54 57 80 94 43z m1476 -78 c0 -91 -5 -106 -36 -106 -2 0
-4 45 -4 100 0 93 1 100 20 100 19 0 20 -7 20 -94z m204 4 c4 -49 5 -94 2 -99
-3 -5 -15 -7 -26 -4 -18 5 -20 14 -20 99 0 85 2 94 19 94 16 0 19 -11 25 -90z
m1524 78 c30 -30 1 -98 -41 -98 -48 0 -74 61 -41 94 18 19 65 21 82 4z m-2800
-90 c80 -53 117 -84 106 -90 -5 -3 -49 23 -99 58 -108 78 -99 69 -90 91 7 17
8 17 16 -2 6 -11 36 -37 67 -57z m2387 38 c0 -12 -16 -29 -42 -45 -24 -14 -63
-41 -88 -59 -29 -22 -45 -28 -45 -19 0 16 28 43 92 86 26 17 47 35 47 39 -3
18 2 23 19 20 9 -2 17 -12 17 -22z m-1925 -11 c0 -8 -9 -15 -20 -15 -11 0 -20
7 -20 15 0 8 9 15 20 15 11 0 20 -7 20 -15z m2176 5 c24 0 44 -4 44 -10 0 -5
-24 -10 -52 -10 -51 0 -55 -2 -113 -59 -59 -58 -62 -59 -135 -69 -62 -8 -109
-22 -162 -50 -5 -2 -8 3 -8 11 0 22 90 56 170 63 l71 7 57 63 c32 36 63 61 70
59 8 -3 34 -5 58 -5z m-738 -13 c1 -4 0 -7 -3 -7 -3 0 -17 0 -31 0 -14 0 -23
4 -20 8 6 9 50 9 54 -1z m1042 -2 c0 -8 -7 -15 -15 -15 -16 0 -20 12 -8 23 11
12 23 8 23 -8z m-3560 -11 c0 -9 -5 -14 -12 -12 -18 6 -21 28 -4 28 9 0 16 -7
16 -16z m3679 -64 c0 -8 -7 1 -14 20 -18 46 -17 64 0 25 8 -16 14 -37 14 -45z
m-91 -1 c-2 -6 -8 -10 -13 -10 -5 0 -11 4 -13 10 -2 6 4 11 13 11 9 0 15 -5
13 -11z m-3616 -14 c0 -5 -5 -11 -11 -13 -6 -2 -11 4 -11 13 0 9 5 15 11 13 6
-2 11 -8 11 -13z m1213 -68 c54 -52 64 -65 52 -75 -11 -9 -27 1 -82 51 -43 40
-66 67 -61 75 12 20 22 14 91 -51z m1255 38 c0 -7 -32 -41 -70 -76 -54 -47
-67 -65 -59 -75 6 -7 9 -23 7 -36 -2 -19 -9 -23 -42 -24 -32 0 -45 -7 -73 -37
-30 -33 -53 -41 -53 -18 0 4 23 33 52 65 43 49 50 61 40 76 -14 23 -6 30 27
24 22 -4 36 5 90 60 61 62 81 72 81 41z m-1935 -31 c66 -7 165 -61 165 -89 0
-11 -20 -2 -67 30 l-68 45 -92 0 c-79 0 -93 2 -93 16 0 13 8 15 48 10 26 -3
74 -9 107 -12z m2665 1 c0 -12 -16 -15 -85 -15 l-85 0 -56 -45 c-56 -46 -74
-54 -74 -32 1 22 120 91 169 98 88 12 131 10 131 -6z m-3225 -13 c0 -18 -20
-15 -23 4 -3 10 1 15 10 12 7 -3 13 -10 13 -16z m1452 3 c36 -25 65 -73 58
-95 -9 -27 -30 -25 -54 6 -16 20 -18 30 -10 45 8 16 6 24 -13 39 -27 23 -12
27 19 5z m773 5 c0 -6 -7 -22 -16 -36 -12 -18 -14 -28 -6 -36 8 -8 8 -17 1
-30 -13 -23 -31 -23 -53 1 -17 19 -16 21 16 65 31 42 58 59 58 36z m1443 4
c11 -11 -3 -24 -18 -18 -8 4 -12 10 -9 15 6 11 18 12 27 3z m-1688 -39 c66
-32 149 -119 182 -191 23 -50 25 -65 21 -148 -3 -80 -8 -102 -36 -158 -38 -77
-92 -130 -171 -166 -47 -23 -70 -27 -146 -27 -77 0 -99 4 -147 27 -74 34 -152
112 -186 186 -23 49 -27 70 -27 147 1 79 4 97 30 150 32 65 103 143 153 169
100 52 235 56 327 11z m-1737 -21 c38 -33 44 -34 120 -34 l80 0 60 -65 59 -65
62 0 c34 0 61 -4 61 -10 0 -6 -30 -10 -69 -10 l-69 0 -55 64 -56 63 -84 0 -85
-1 -47 42 c-26 23 -52 42 -57 42 -5 0 -7 4 -4 9 10 15 42 1 84 -35z m3222 31
c0 -9 -9 -15 -21 -15 -11 0 -38 -18 -60 -40 l-40 -40 -82 -1 -82 0 -49 -59
c-45 -53 -55 -59 -97 -65 -48 -7 -69 -2 -69 16 0 5 22 9 50 9 51 0 71 14 140
103 20 26 26 27 106 27 l85 0 38 40 c38 40 81 54 81 25z m-3485 -63 c-8 -8
-25 10 -19 20 4 6 9 5 15 -3 4 -7 6 -15 4 -17z m195 -16 c0 -35 -25 -52 -55
-38 -35 16 -32 61 5 74 24 8 50 -11 50 -36z m3360 30 c6 -8 10 -25 8 -38 -6
-42 -78 -32 -78 11 0 37 46 55 70 27z m150 5 c0 -17 -18 -21 -24 -6 -3 9 0 15
9 15 8 0 15 -4 15 -9z m-2320 -12 c0 -6 -4 -19 -10 -29 -8 -15 -1 -26 41 -62
41 -36 50 -49 45 -66 -6 -19 -10 -17 -52 25 -30 29 -51 43 -61 39 -19 -8 -53
20 -53 42 0 24 41 62 67 62 13 0 23 -5 23 -11z m-1400 -65 c0 -8 -4 -12 -10
-9 -5 3 -10 10 -10 16 0 5 5 9 10 9 6 0 10 -7 10 -16z m1078 -8 c4 -18 -21
-46 -39 -46 -10 0 -21 49 -13 61 10 17 49 5 52 -15z m1620 -4 c4 -28 -24 -41
-44 -20 -20 20 -7 50 20 46 13 -2 22 -12 24 -26z m1040 17 c-2 -6 -8 -10 -13
-10 -5 0 -11 4 -13 10 -2 6 4 11 13 11 9 0 15 -5 13 -11z m-2998 -14 c0 -12
-13 -15 -57 -15 -32 0 -75 3 -95 6 -69 12 -39 24 57 24 78 0 95 -3 95 -15z
m2410 6 c0 -12 -51 -21 -116 -21 -50 0 -64 7 -47 23 10 10 163 8 163 -2z
m-2765 -66 c0 -22 -31 -33 -47 -17 -17 17 -1 44 24 40 15 -2 23 -10 23 -23z
m2960 0 c0 -22 -31 -33 -47 -17 -17 17 -1 44 24 40 15 -2 23 -10 23 -23z
m-3355 -1 c0 -17 -22 -14 -28 4 -2 7 3 12 12 12 9 0 16 -7 16 -16z m3764 1
c-4 -8 -10 -15 -15 -15 -5 0 -9 7 -9 15 0 8 7 15 15 15 9 0 12 -6 9 -15z
m-2532 -12 c26 -23 24 -78 -4 -97 -30 -21 -54 -20 -78 4 -58 58 21 148 82 93z
m1369 -4 c45 -45 -5 -115 -68 -93 -38 13 -44 57 -12 90 28 29 53 30 80 3z
m-1206 -39 c0 -18 -6 -26 -23 -28 -13 -2 -25 3 -28 12 -10 26 4 48 28 44 17
-2 23 -10 23 -28z m1003 4 c4 -29 -23 -51 -43 -34 -16 13 -20 42 -8 54 14 14
48 1 51 -20z m-2252 1 c5 -12 29 -15 133 -15 69 0 197 -3 284 -7 144 -6 157
-8 157 -25 0 -16 -9 -18 -88 -18 -49 0 -93 5 -99 11 -8 8 -308 8 -427 -1 -30
-2 -41 16 -28 45 13 28 59 35 68 10z m3509 1 c39 -28 -14 -72 -66 -54 -22 8
-224 6 -488 -4 -48 -2 -76 1 -78 8 -7 20 37 24 293 24 238 0 252 1 269 20 21
23 44 25 70 6z m-3660 -26 c-3 -5 -13 -6 -21 -3 -12 4 -13 8 -3 14 15 9 32 2
24 -11z m3780 11 c7 -12 -12 -24 -25 -16 -11 7 -4 25 10 25 5 0 11 -4 15 -9z
m-3795 -77 c0 -8 -4 -12 -10 -9 -5 3 -10 10 -10 16 0 5 5 9 10 9 6 0 10 -7 10
-16z m3794 -15 c-3 -5 -10 -7 -15 -3 -5 3 -7 10 -3 15 3 5 10 7 15 3 5 -3 7
-10 3 -15z m-3064 -34 c0 -12 -20 -15 -110 -16 -60 -1 -116 -2 -122 -3 -7 -1
-14 7 -16 17 -3 15 8 17 122 17 105 0 126 -2 126 -15z m2560 0 c0 -12 -19 -15
-115 -15 -96 0 -115 3 -115 15 0 12 19 15 115 15 96 0 115 -3 115 -15z m510
-25 c0 -5 -4 -10 -10 -10 -5 0 -10 5 -10 10 0 6 5 10 10 10 6 0 10 -4 10 -10z
m-3810 -16 c0 -17 -22 -14 -28 4 -2 7 3 12 12 12 9 0 16 -7 16 -16z m1458 -46
c7 -7 12 -31 12 -54 0 -43 10 -54 50 -54 10 0 38 -18 63 -41 l46 -40 -6 -69
c-5 -64 -4 -71 21 -100 22 -27 26 -41 26 -96 0 -61 2 -66 35 -96 l36 -31 -3
-106 c-3 -91 -5 -106 -20 -109 -16 -3 -18 7 -18 97 l0 100 -35 28 c-34 27 -35
30 -35 99 0 58 -4 74 -20 89 -16 14 -20 33 -22 108 l-3 90 -77 29 -76 29 -4
70 c-3 69 4 83 30 57z m922 -57 l0 -69 -52 -17 c-121 -38 -120 -36 -109 -155
6 -60 4 -73 -11 -87 -14 -12 -18 -31 -18 -77 0 -60 -1 -63 -45 -106 l-45 -44
0 -94 c0 -70 -3 -93 -12 -90 -9 3 -15 39 -20 104 l-7 99 50 44 51 44 -7 59
c-6 49 -4 63 10 78 14 16 18 36 16 99 -2 78 -2 80 33 118 27 30 42 39 70 40
50 1 56 8 56 62 0 50 5 61 27 61 9 0 13 -18 13 -69z m-1074 11 c-9 -28 -44
-38 -63 -19 -20 19 -11 45 19 56 29 12 53 -9 44 -37z m2094 33 c0 -13 -25 -15
-165 -15 -151 0 -178 4 -158 23 3 4 78 7 165 7 134 0 158 -2 158 -15z m-836
-17 c15 -25 -17 -57 -42 -42 -22 14 -28 44 -10 55 18 12 39 7 52 -13z m-1834
-63 c0 -13 -26 -15 -175 -15 -160 0 -188 4 -168 23 3 4 82 7 175 7 143 0 168
-2 168 -15z m2688 -2 c3 -10 -35 -13 -167 -13 -155 0 -193 5 -174 24 4 3 81 5
172 4 121 -2 165 -6 169 -15z m392 7 c0 -5 -4 -10 -10 -10 -5 0 -10 5 -10 10
0 6 5 10 10 10 6 0 10 -4 10 -10z m-2689 -75 l96 -74 6 -57 c7 -65 4 -74 -25
-74 -18 0 -19 4 -13 49 l6 48 -53 45 c-97 83 -125 98 -184 98 -41 0 -54 4 -54
15 0 10 16 15 58 18 31 2 59 4 62 5 3 1 48 -32 101 -73z m1769 50 c0 -12 -13
-15 -55 -15 -53 0 -59 -3 -135 -62 l-78 -63 -1 -52 c-1 -46 -4 -53 -21 -53
-18 0 -20 7 -20 56 0 63 -6 54 120 158 53 43 58 45 123 45 53 1 67 -2 67 -14z
m-2890 -35 c0 -5 -5 -10 -11 -10 -5 0 -7 5 -4 10 3 6 8 10 11 10 2 0 4 -4 4
-10z m3820 -11 c0 -5 -7 -9 -15 -9 -15 0 -20 12 -9 23 8 8 24 -1 24 -14z
m-3087 -24 c1 -6 -71 -12 -195 -15 -182 -5 -198 -6 -212 -25 -14 -20 -12 -20
206 -23 168 -2 219 -5 215 -15 -3 -9 -70 -12 -278 -12 -209 0 -277 -2 -287
-12 -31 -30 -76 -4 -70 39 2 18 10 24 36 26 22 2 34 -2 38 -12 5 -12 20 -16
60 -16 47 0 54 3 54 19 0 11 12 29 27 40 25 20 36 21 215 19 115 -2 189 -7
191 -13z m2714 -17 c31 -30 34 -31 51 -15 23 21 66 22 86 1 27 -26 17 -58 -25
-79 -35 -18 -34 -18 -54 1 -14 14 -46 16 -235 15 -193 -2 -220 0 -220 14 0 13
27 15 206 15 l206 0 -14 23 c-15 21 -21 22 -197 25 -152 2 -181 5 -181 17 0
13 27 15 172 15 l172 0 33 -32z m-3440 -24 c-9 -9 -28 6 -21 18 4 6 10 6 17
-1 6 -6 8 -13 4 -17z m3808 6 c3 -5 -1 -10 -9 -10 -9 0 -16 5 -16 10 0 6 4 10
9 10 6 0 13 -4 16 -10z m-2075 -137 c0 -95 -2 -103 -19 -103 -16 0 -20 9 -23
61 -1 33 -1 85 0 114 4 50 5 53 23 42 17 -10 19 -24 19 -114z m377 102 c3 -9
2 -76 -2 -150 -5 -106 -10 -135 -21 -135 -11 0 -14 27 -14 143 0 79 3 147 7
150 11 11 23 8 30 -8z m-2100 -41 c-9 -9 -28 6 -21 18 4 6 10 6 17 -1 6 -6 8
-13 4 -17z m2013 -44 c0 -53 -2 -60 -20 -60 -17 0 -20 7 -20 53 0 56 4 67 27
67 9 0 13 -17 13 -60z m1778 49 c-2 -6 -8 -10 -13 -10 -5 0 -11 4 -13 10 -2 6
4 11 13 11 9 0 15 -5 13 -11z m-1978 -54 c0 -52 -1 -55 -25 -55 -24 0 -25 3
-25 55 0 52 1 55 25 55 24 0 25 -3 25 -55z m98 -283 l2 -333 -27 3 -28 3 4
325 c2 179 6 329 8 333 3 4 12 7 21 5 15 -3 17 -35 20 -336z m-1173 298 c-3
-5 -33 -10 -65 -10 -48 0 -64 -5 -88 -25 -28 -23 -38 -25 -134 -25 -57 0 -108
-4 -113 -9 -6 -5 -40 -11 -77 -13 -60 -2 -68 -5 -73 -25 -11 -46 -85 -36 -85
13 0 31 41 54 64 35 12 -10 26 -9 70 3 36 11 95 16 180 16 120 0 126 1 150 25
22 22 33 25 101 25 48 0 74 -4 70 -10z m2442 -14 c27 -23 35 -24 240 -29 221
-5 243 -9 243 -48 0 -10 -11 -26 -24 -34 -31 -21 -66 -5 -66 29 0 22 -4 23
-107 29 -58 4 -144 7 -191 7 -78 0 -86 2 -104 25 -17 22 -27 25 -84 25 -36 0
-64 4 -64 10 0 6 28 10 64 10 53 0 69 -4 93 -24z m-3167 -4 c0 -13 -12 -22
-22 -16 -10 6 -1 24 13 24 5 0 9 -4 9 -8z m3770 -12 c0 -5 -6 -10 -14 -10 -8
0 -18 5 -21 10 -3 6 3 10 14 10 12 0 21 -4 21 -10z m-3030 -45 c0 -12 -14 -15
-65 -15 -60 0 -75 6 -58 23 3 4 33 7 65 7 45 0 58 -3 58 -15z m2378 -2 c3 -9
-12 -13 -52 -13 -52 0 -74 9 -59 24 12 12 106 2 111 -11z m-1688 -8 c16 -19 3
-55 -19 -55 -10 0 -26 9 -36 20 -15 16 -15 22 -5 35 16 19 44 19 60 0z m938 3
c18 -18 15 -36 -8 -48 -30 -16 -60 -3 -60 25 0 33 43 48 68 23z m-2358 -8 c0
-5 -4 -10 -10 -10 -5 0 -10 5 -10 10 0 6 5 10 10 10 6 0 10 -4 10 -10z m1538
-26 c2 -19 -3 -36 -13 -44 -22 -18 -55 13 -55 52 0 27 3 29 33 26 28 -3 32 -7
35 -34z m712 -8 c0 -35 -5 -48 -22 -61 -23 -15 -23 -15 -30 37 -8 62 -5 68 28
68 22 0 24 -4 24 -44z m1488 26 c2 -7 -3 -12 -12 -12 -9 0 -16 7 -16 16 0 17
22 14 28 -4z m-3000 -37 c40 -14 -7 -23 -144 -27 l-157 -5 -61 -67 c-61 -66
-81 -77 -104 -54 -22 22 -12 41 53 102 l65 61 168 -3 c92 -2 173 -5 180 -7z
m1032 -10 c18 -22 8 -50 -19 -50 -32 0 -49 28 -32 49 17 20 35 20 51 1z m235
-20 c0 -25 -4 -30 -25 -30 -16 0 -26 6 -28 18 -6 30 6 49 30 45 18 -2 23 -9
23 -33z m1391 -21 c63 -56 75 -79 52 -102 -21 -21 -34 -14 -101 53 -64 64 -73
89 -15 40 49 -41 69 -28 23 15 -25 24 -28 24 -205 21 -119 -2 -180 1 -180 8 0
12 58 17 233 19 l129 2 64 -56z m-1729 14 c-3 -7 -5 -2 -5 12 0 14 2 19 5 13
2 -7 2 -19 0 -25z m-1647 12 c0 -5 -4 -10 -10 -10 -5 0 -10 5 -10 10 0 6 5 10
10 10 6 0 10 -4 10 -10z m3696 -17 c-10 -10 -19 5 -10 18 6 11 8 11 12 0 2 -7
1 -15 -2 -18z m-2487 -43 c23 -27 49 -50 56 -50 23 0 38 -36 25 -60 -21 -39
-89 -15 -76 28 8 25 -50 79 -89 84 -53 6 -30 41 31 47 6 1 30 -21 53 -49z
m296 0 c23 -31 35 -57 31 -66 -8 -20 -23 -9 -61 46 -23 33 -29 70 -11 70 2 0
21 -23 41 -50z m1055 25 c16 -19 4 -35 -25 -35 -15 0 -31 -10 -41 -25 -9 -14
-25 -25 -35 -25 -11 0 -19 -7 -19 -16 0 -10 6 -14 15 -10 18 7 20 -15 3 -32
-26 -26 -78 -7 -78 28 0 28 24 51 60 59 26 5 34 12 32 25 -7 40 60 64 88 31z
m-330 -13 c-1 -15 -62 -74 -80 -77 -29 -6 -25 4 22 52 36 37 59 47 58 25z
m-2210 -28 c0 -8 -4 -12 -10 -9 -5 3 -10 10 -10 16 0 5 5 9 10 9 6 0 10 -7 10
-16z m738 -1 c3 -10 -19 -13 -89 -13 -72 0 -96 -4 -111 -17 -10 -9 -18 -19
-18 -22 0 -3 52 -6 115 -6 162 0 149 -19 -17 -25 -116 -4 -131 -7 -134 -23 -4
-28 -25 -48 -48 -45 -17 2 -21 10 -21 38 0 31 3 35 28 38 18 2 43 20 69 48
l41 45 90 -3 c61 -2 92 -7 95 -15z m2388 -28 c29 -28 55 -45 70 -45 31 0 53
-42 34 -65 -7 -8 -20 -15 -30 -15 -21 0 -52 33 -48 51 2 11 -24 15 -127 20
-148 8 -135 6 -135 20 0 7 39 9 115 7 63 -2 115 0 115 5 0 4 -15 16 -32 27
-24 15 -51 20 -100 20 -39 0 -68 4 -68 10 0 6 33 10 80 10 l79 0 47 -45z m534
20 c0 -8 -4 -15 -10 -15 -5 0 -10 7 -10 15 0 8 5 15 10 15 6 0 10 -7 10 -15z
m-2315 -50 c0 -37 -28 -46 -45 -15 -9 16 -8 25 1 36 20 24 44 13 44 -21z m983
-1 c4 -27 -26 -40 -46 -20 -21 20 -8 48 20 44 14 -2 24 -11 26 -24z m-2301
-20 c-9 -9 -28 6 -21 18 4 6 10 6 17 -1 6 -6 8 -13 4 -17z m1548 -14 c0 -31
-3 -35 -28 -38 -31 -4 -43 14 -33 54 5 20 12 25 34 22 24 -3 27 -7 27 -38z
m545 15 c6 -8 9 -23 5 -35 -10 -31 -59 -24 -63 9 -6 37 34 55 58 26z m1520 0
c0 -8 -4 -15 -9 -15 -13 0 -22 16 -14 24 11 11 23 6 23 -9z m-3446 -17 c14
-23 -3 -52 -33 -56 -42 -6 -67 38 -39 66 17 17 58 11 72 -10z m3314 10 c30
-30 0 -75 -43 -64 -41 11 -29 76 15 76 9 0 21 -5 28 -12z m-2718 -31 c0 -7
-13 -20 -29 -30 -16 -9 -41 -31 -55 -47 -20 -25 -32 -30 -68 -30 -39 0 -47 -4
-87 -51 -24 -28 -62 -64 -83 -80 -22 -15 -48 -43 -57 -60 -9 -18 -23 -37 -32
-42 -24 -15 -68 1 -81 28 -26 56 35 105 88 70 26 -17 26 -17 82 37 31 29 64
63 75 76 38 45 49 52 84 52 27 0 46 10 86 45 52 45 77 56 77 32z m2160 -54
c30 -23 54 -33 80 -33 28 0 40 -5 49 -23 6 -12 43 -51 82 -86 65 -59 71 -62
88 -47 35 32 101 6 101 -40 0 -28 -32 -64 -58 -64 -25 0 -62 28 -62 48 0 9
-28 40 -61 67 -34 28 -74 67 -91 88 l-30 37 -91 2 c-72 1 -82 2 -44 7 l48 6
-50 39 c-27 22 -47 44 -44 48 2 5 13 3 22 -4 10 -7 37 -28 61 -45z m-1560 23
c0 -29 -34 -41 -55 -20 -21 21 -7 44 26 44 24 0 29 -4 29 -24z m918 -4 c4 -28
-24 -40 -45 -19 -21 21 -9 49 19 45 15 -2 24 -11 26 -26z m-2250 -1 c3 -8 -1
-12 -9 -9 -7 2 -15 10 -17 17 -3 8 1 12 9 9 7 -2 15 -10 17 -17z m3543 -14
c-8 -8 -11 -7 -11 4 0 20 13 34 18 19 3 -7 -1 -17 -7 -23z m-2776 -37 c7 -12
-5 -17 -64 -23 -49 -6 -44 6 9 21 47 14 48 14 55 2z m-741 -26 c4 -10 1 -14
-6 -12 -15 5 -23 28 -10 28 5 0 13 -7 16 -16z m3500 1 c-6 -16 -24 -21 -24 -7
0 11 11 22 21 22 5 0 6 -7 3 -15z m-2714 -22 c0 -5 -40 -47 -89 -95 -62 -62
-96 -88 -113 -88 -35 0 -48 -18 -48 -65 0 -31 -6 -47 -24 -64 -14 -13 -26 -35
-28 -50 -2 -21 -9 -27 -35 -29 -31 -3 -33 -1 -33 27 0 27 6 34 48 53 41 20 47
27 50 58 5 63 21 90 53 90 23 0 45 17 111 85 72 75 108 101 108 78z m-145 -74
c-9 -14 -45 -11 -51 5 -3 8 3 26 13 40 l18 25 13 -30 c7 -17 10 -34 7 -40z
m2251 37 c3 -8 0 -24 -6 -36 -9 -17 -14 -19 -26 -9 -15 12 -19 41 -7 52 11 12
33 8 39 -7z m-2852 -5 c3 -5 -1 -11 -9 -15 -9 -3 -15 0 -15 9 0 16 16 20 24 6z
m3426 -5 c0 -8 -4 -17 -9 -20 -10 -7 -23 19 -14 28 11 11 23 6 23 -8z m-2637
-12 c3 -4 -13 -30 -36 -58 -23 -28 -43 -53 -44 -55 -1 -2 -10 2 -18 9 -14 12
-10 19 32 61 50 49 56 53 66 43z m1999 -61 c24 -23 55 -42 81 -48 42 -10 42
-10 45 -60 3 -53 33 -98 57 -89 20 8 56 -32 48 -53 -13 -35 -42 -42 -68 -17
-9 10 -13 24 -10 35 5 14 -1 26 -19 40 -22 17 -26 29 -26 70 0 48 -1 49 -29
49 -31 0 -123 69 -129 96 -6 23 10 16 50 -23z m-2752 18 c0 -12 -20 -25 -27
-18 -7 7 6 27 18 27 5 0 9 -4 9 -9z m3349 -20 c-15 -5 -22 6 -14 19 6 9 10 9
16 -1 5 -8 4 -15 -2 -18z m-2534 -10 c3 -5 1 -12 -4 -15 -5 -3 -11 1 -15 9 -6
16 9 21 19 6z m-72 -83 c-26 -27 -51 -48 -55 -48 -20 0 -4 28 39 72 33 33 49
44 55 35 4 -7 -10 -29 -39 -59z m1924 55 c7 -20 -16 -24 -26 -4 -9 16 -8 19 6
17 9 -2 19 -8 20 -13z m-2634 -26 c-3 -4 -11 -3 -19 4 -7 6 -11 15 -8 20 3 5
11 3 18 -4 8 -6 12 -16 9 -20z m3282 -7 c-5 -8 -11 -8 -17 -2 -6 6 -7 16 -3
22 5 8 11 8 17 2 6 -6 7 -16 3 -22z m-2451 -11 c-3 -5 -10 -7 -15 -3 -5 3 -7
10 -3 15 3 5 10 7 15 3 5 -3 7 -10 3 -15z m-64 -78 c-61 -72 -149 -155 -156
-148 -4 4 15 30 42 59 27 29 69 77 93 106 30 35 47 49 52 40 5 -7 -8 -30 -31
-57z m1838 45 c11 -10 11 -15 -1 -24 -11 -9 -20 -5 -42 18 l-28 29 29 -5 c16
-3 35 -11 42 -18z m-2568 -6 c0 -5 -4 -10 -10 -10 -5 0 -10 5 -10 10 0 6 5 10
10 10 6 0 10 -4 10 -10z m3200 -5 c0 -8 -4 -15 -10 -15 -5 0 -10 7 -10 15 0 8
5 15 10 15 6 0 10 -7 10 -15z m-2392 -95 c-35 -39 -64 -75 -66 -79 -2 -5 7
-11 18 -14 33 -9 24 -61 -11 -65 -36 -4 -54 20 -43 58 11 37 158 203 162 184
2 -8 -25 -46 -60 -84z m1709 23 c25 -26 56 -62 69 -79 17 -22 32 -31 54 -31
61 0 91 -62 50 -103 -27 -27 -46 -25 -77 6 -20 20 -24 32 -19 56 6 28 -1 38
-81 119 -62 64 -80 87 -64 84 13 -2 43 -26 68 -52z m-2467 12 c0 -8 -4 -15
-10 -15 -5 0 -10 7 -10 15 0 8 5 15 10 15 6 0 10 -7 10 -15z m3098 -6 c-2 -6
-8 -10 -13 -10 -5 0 -11 4 -13 10 -2 6 4 11 13 11 9 0 15 -5 13 -11z m-2189
-100 c1 -32 6 -49 16 -53 8 -3 15 -17 15 -30 0 -19 -7 -27 -24 -32 -14 -3 -30
-3 -35 1 -14 8 -14 52 -1 60 6 3 10 39 11 78 1 80 16 59 18 -24z m1476 26 c47
-53 56 -69 51 -89 -7 -29 -41 -43 -61 -26 -20 16 -19 57 1 68 14 8 11 14 -16
43 -38 41 -55 69 -41 69 5 0 35 -29 66 -65z m-2327 16 c3 -8 -1 -12 -9 -9 -7
2 -15 10 -17 17 -3 8 1 12 9 9 7 -2 15 -10 17 -17z m2997 0 c7 -12 -12 -24
-25 -16 -11 7 -4 25 10 25 5 0 11 -4 15 -9z m-2954 -54 c-13 -13 -26 -3 -16
12 3 6 11 8 17 5 6 -4 6 -10 -1 -17z m417 -13 c44 -30 18 -114 -36 -114 -18 0
-62 46 -62 65 0 19 44 65 62 65 8 0 24 -7 36 -16z m2476 -5 c-3 -5 -10 -7 -15
-3 -5 3 -7 10 -3 15 3 5 10 7 15 3 5 -3 7 -10 3 -15z m-784 -56 c0 -23 116
-145 153 -161 41 -18 37 -79 -6 -95 -10 -4 -27 -2 -38 3 -23 13 -26 58 -4 66
11 5 -2 25 -51 80 -37 41 -74 74 -83 74 -36 0 -57 54 -26 66 8 4 15 13 15 21
0 11 6 7 20 -10 11 -14 20 -33 20 -44z m-2052 25 c-6 -18 -28 -21 -28 -4 0 9
7 16 16 16 9 0 14 -5 12 -12z m1581 -14 c3 -16 1 -17 -13 -5 -19 16 -21 34 -3
29 6 -3 14 -13 16 -24z m1197 -11 c-10 -10 -19 5 -10 18 6 11 8 11 12 0 2 -7
1 -15 -2 -18z m-2724 -38 c0 -5 -5 -11 -11 -13 -6 -2 -11 4 -11 13 0 9 5 15
11 13 6 -2 11 -8 11 -13z m658 -3 c0 -4 -27 -34 -60 -67 -55 -54 -58 -60 -44
-76 33 -37 1 -88 -48 -76 -52 13 -40 86 19 114 19 9 53 38 75 64 38 46 58 60
58 41z m723 -244 c45 -43 50 -86 12 -123 -13 -14 -29 -25 -35 -25 -6 0 -10
-42 -10 -115 0 -96 -3 -115 -15 -115 -12 0 -15 19 -15 115 0 96 -3 115 -15
115 -29 0 -55 38 -55 79 0 32 6 44 31 65 17 14 35 26 40 26 5 0 10 53 11 118
l1 117 6 -111 7 -111 37 -35z m-493 223 c5 -11 7 -26 4 -35 -8 -21 -42 -30
-59 -16 -15 13 -20 51 -8 63 13 14 53 6 63 -12z m639 -105 c1 -36 7 -55 26
-78 23 -27 25 -38 25 -129 0 -59 -4 -99 -10 -99 -6 0 -10 40 -10 100 0 95 -1
100 -25 116 -24 16 -25 20 -24 118 1 81 3 93 10 61 4 -22 8 -62 8 -89z m309
91 c3 -21 -2 -29 -20 -36 -31 -12 -58 4 -58 33 0 31 9 37 45 34 24 -2 31 -8
33 -31z m832 23 c0 -5 -4 -10 -10 -10 -5 0 -10 5 -10 10 0 6 5 10 10 10 6 0
10 -4 10 -10z m-1666 -18 c3 -5 -15 -28 -39 -52 l-45 -44 0 -82 c0 -60 4 -85
15 -94 23 -19 18 -57 -10 -76 -23 -15 -27 -15 -50 0 -32 21 -36 75 -6 83 16 4
20 18 26 92 6 83 8 88 48 134 42 48 52 54 61 39z m-943 -25 c-1 -12 -15 -9
-19 4 -3 6 1 10 8 8 6 -3 11 -8 11 -12z m1064 -167 c-23 -24 -25 -33 -25 -119
0 -59 -4 -90 -10 -86 -5 3 -10 46 -10 95 0 82 2 91 28 121 15 18 28 41 28 51
1 10 3 42 5 71 2 43 4 38 6 -27 4 -73 2 -81 -22 -106z m612 134 c31 -24 32
-24 30 -109 -1 -47 1 -85 5 -85 17 0 38 -34 38 -61 0 -32 -28 -50 -62 -41 -38
10 -43 75 -9 97 6 3 11 38 11 76 0 69 0 70 -47 121 -49 53 -35 53 34 2z m873
11 c-7 -8 -16 -12 -21 -9 -13 8 -1 24 18 24 13 0 13 -3 3 -15z m-2489 -28 c-1
-12 -15 -9 -19 4 -3 6 1 10 8 8 6 -3 11 -8 11 -12z m2421 -22 c0 -5 -5 -11
-11 -13 -6 -2 -11 4 -11 13 0 9 5 15 11 13 6 -2 11 -8 11 -13z m-2354 -34 c3
-8 -1 -12 -9 -9 -7 2 -15 10 -17 17 -3 8 1 12 9 9 7 -2 15 -10 17 -17z m2293
-14 c-1 -12 -15 -9 -19 4 -3 6 1 10 8 8 6 -3 11 -8 11 -12z m-2216 -39 c6 -4
2 -8 -7 -8 -10 0 -18 7 -18 17 0 9 3 12 8 7 4 -5 12 -12 17 -16z m2165 2 c0
-5 -4 -10 -10 -10 -5 0 -10 5 -10 10 0 6 5 10 10 10 6 0 10 -4 10 -10z m-2100
-41 c0 -5 -7 -9 -15 -9 -8 0 -15 7 -15 15 0 9 6 12 15 9 8 -4 15 -10 15 -15z
m2032 6 c0 -5 -5 -11 -11 -13 -6 -2 -11 4 -11 13 0 9 5 15 11 13 6 -2 11 -8
11 -13z m-70 -40 c0 -5 -5 -11 -11 -13 -6 -2 -11 4 -11 13 0 9 5 15 11 13 6
-2 11 -8 11 -13z m-1894 -13 c2 -7 -2 -10 -12 -6 -9 3 -16 11 -16 16 0 13 23
5 28 -10z m77 -32 c3 -5 -1 -10 -9 -10 -9 0 -16 5 -16 10 0 6 4 10 9 10 6 0
13 -4 16 -10z m1750 0 c-3 -5 -10 -10 -16 -10 -5 0 -9 5 -9 10 0 6 7 10 16 10
8 0 12 -4 9 -10z m-1688 -46 c-9 -9 -28 6 -21 18 4 6 10 6 17 -1 6 -6 8 -13 4
-17z m1613 17 c0 -5 -7 -11 -15 -15 -15 -5 -20 5 -8 17 9 10 23 9 23 -2z
m-1540 -41 c0 -5 -7 -10 -15 -10 -8 0 -15 5 -15 10 0 6 7 10 15 10 8 0 15 -4
15 -10z m1460 2 c0 -13 -12 -22 -22 -16 -10 6 -1 24 13 24 5 0 9 -4 9 -8z
m-1390 -32 c0 -5 -4 -10 -10 -10 -5 0 -10 5 -10 10 0 6 5 10 10 10 6 0 10 -4
10 -10z m1310 0 c0 -5 -4 -10 -10 -10 -5 0 -10 5 -10 10 0 6 5 10 10 10 6 0
10 -4 10 -10z m-1250 -14 c0 -3 -4 -8 -10 -11 -5 -3 -10 -1 -10 4 0 6 5 11 10
11 6 0 10 -2 10 -4z m1180 -6 c0 -5 -7 -10 -16 -10 -8 0 -12 5 -9 10 3 6 10
10 16 10 5 0 9 -4 9 -10z m-80 -30 c0 -5 -7 -10 -15 -10 -8 0 -15 5 -15 10 0
6 7 10 15 10 8 0 15 -4 15 -10z m-960 -10 c0 -5 -5 -10 -11 -10 -5 0 -7 5 -4
10 3 6 8 10 11 10 2 0 4 -4 4 -10z m880 -10 c0 -5 -7 -10 -15 -10 -8 0 -15 5
-15 10 0 6 7 10 15 10 8 0 15 -4 15 -10z m-805 -10 c-3 -5 -10 -10 -16 -10 -5
0 -9 5 -9 10 0 6 7 10 16 10 8 0 12 -4 9 -10z m75 -10 c0 -5 -4 -10 -10 -10
-5 0 -10 5 -10 10 0 6 5 10 10 10 6 0 10 -4 10 -10z m650 6 c0 -11 -19 -15
-25 -6 -3 5 1 10 9 10 9 0 16 -2 16 -4z m-570 -16 c0 -5 -4 -10 -10 -10 -5 0
-10 5 -10 10 0 6 5 10 10 10 6 0 10 -4 10 -10z m490 0 c0 -5 -4 -10 -10 -10
-5 0 -10 5 -10 10 0 6 5 10 10 10 6 0 10 -4 10 -10z m-415 -10 c-3 -5 -10 -10
-16 -10 -5 0 -9 5 -9 10 0 6 7 10 16 10 8 0 12 -4 9 -10z m70 0 c3 -5 -1 -10
-9 -10 -9 0 -16 5 -16 10 0 6 4 10 9 10 6 0 13 -4 16 -10z m185 0 c0 -5 -7
-10 -16 -10 -8 0 -12 5 -9 10 3 6 10 10 16 10 5 0 9 -4 9 -10z m80 0 c0 -5 -4
-10 -10 -10 -5 0 -10 5 -10 10 0 6 5 10 10 10 6 0 10 -4 10 -10z"/>
<path d="M3843 6034 c-7 -18 17 -38 31 -24 11 11 1 40 -14 40 -6 0 -13 -7 -17
-16z"/>
<path d="M3325 5136 c-56 -25 -88 -70 -93 -129 -8 -98 46 -166 137 -174 130
-12 208 145 126 253 -44 58 -109 77 -170 50z m128 -77 c41 -44 38 -100 -7
-145 -36 -36 -70 -43 -109 -23 -53 27 -72 93 -44 149 16 32 74 62 107 55 14
-3 37 -19 53 -36z"/>
<path d="M4285 5135 c-95 -51 -120 -141 -64 -231 45 -73 120 -93 193 -51 52
29 77 65 83 119 13 117 -115 215 -212 163z m113 -55 c81 -50 61 -172 -33 -196
-54 -14 -125 49 -125 111 0 28 29 74 58 89 37 21 61 20 100 -4z"/>
<path d="M4585 5125 c-16 -14 -35 -25 -42 -25 -17 0 -24 -15 -17 -34 5 -12 20
-16 65 -16 l59 0 0 38 c0 34 -14 63 -29 62 -4 -1 -19 -12 -36 -25z"/>
<path d="M3074 5127 c-2 -7 -6 -26 -7 -42 l-2 -29 65 0 c54 -1 65 2 68 17 2 9
-1 17 -7 17 -6 0 -29 11 -51 25 -45 28 -58 31 -66 12z"/>
<path d="M2895 3950 c-41 -46 -10 -120 50 -120 39 0 68 30 68 70 0 40 -29 70
-68 70 -19 0 -39 -8 -50 -20z m89 -16 c21 -21 20 -40 -4 -64 -35 -35 -80 -20
-80 26 0 27 25 54 50 54 10 0 26 -7 34 -16z"/>
<path d="M4720 3950 c-36 -36 -22 -89 29 -110 40 -16 75 -7 89 25 17 36 15 48
-9 79 -26 33 -79 36 -109 6z m88 -16 c40 -28 22 -74 -29 -74 -28 0 -59 22 -59
42 0 18 31 48 49 48 9 0 27 -7 39 -16z"/>
<path d="M3000 3618 c0 -32 113 -138 147 -138 10 0 13 19 13 75 l0 75 -80 0
c-54 0 -80 -4 -80 -12z"/>
<path d="M4554 3617 c-2 -7 -1 -43 3 -80 l8 -68 47 30 c43 27 108 101 108 123
0 14 -160 10 -166 -5z"/>
<path d="M3471 3414 c-47 -59 -10 -154 59 -154 42 0 67 15 86 51 32 62 -11
129 -82 129 -34 0 -47 -5 -63 -26z m103 -20 c23 -22 20 -71 -3 -84 -31 -16
-69 -12 -81 9 -14 26 -13 64 2 79 17 17 64 15 82 -4z"/>
<path d="M4125 3414 c-35 -38 -34 -87 4 -125 71 -70 179 0 141 92 -27 63 -101
80 -145 33z m111 -29 c35 -54 -20 -115 -72 -80 -27 17 -33 72 -12 93 21 21 66
14 84 -13z"/>
<path d="M2791 5554 c0 -11 3 -14 6 -6 3 7 2 16 -1 19 -3 4 -6 -2 -5 -13z"/>
<path d="M4891 5554 c0 -11 3 -14 6 -6 3 7 2 16 -1 19 -3 4 -6 -2 -5 -13z"/>
<path d="M3547 5343 c-12 -11 -8 -40 7 -52 21 -18 50 14 36 40 -11 19 -31 25
-43 12z"/>
<path d="M4133 5334 c-7 -18 11 -39 26 -30 17 11 13 46 -4 46 -9 0 -18 -7 -22
-16z"/>
<path d="M2355 5269 c-10 -15 3 -25 16 -12 7 7 7 13 1 17 -6 3 -14 1 -17 -5z"/>
<path d="M5350 5266 c0 -9 5 -16 10 -16 6 0 10 4 10 9 0 6 -4 13 -10 16 -5 3
-10 -1 -10 -9z"/>
<path d="M2256 4973 c-12 -12 -6 -33 9 -33 8 0 15 6 15 14 0 17 -14 28 -24 19z"/>
<path d="M5445 4977 c-11 -26 9 -44 30 -27 19 16 20 34 1 27 -8 -3 -17 -1 -19
6 -3 7 -7 5 -12 -6z"/>
<path d="M3763 4684 c-59 -21 -136 -94 -167 -156 -54 -108 -27 -247 64 -338
106 -106 262 -115 385 -22 75 57 108 118 113 212 4 68 1 84 -23 139 -29 64
-87 126 -146 157 -47 24 -171 28 -226 8z m206 -28 c181 -94 218 -333 70 -459
-43 -38 -130 -71 -179 -70 -90 3 -187 66 -235 154 -98 178 52 410 256 395 31
-2 70 -11 88 -20z"/>
<path d="M3786 4605 c-111 -39 -171 -187 -118 -291 42 -83 107 -124 195 -124
68 0 94 9 142 52 101 88 98 228 -5 322 -60 54 -137 69 -214 41z m159 -45 c30
-28 33 -45 6 -30 -11 5 -37 10 -58 10 l-38 -1 31 -13 c42 -19 64 -52 64 -99 0
-106 -149 -136 -190 -38 -16 41 -6 94 25 123 38 36 29 42 -20 15 -48 -27 -59
-21 -24 14 54 54 157 63 204 19z"/>
<path d="M5482 4038 c2 -13 8 -23 13 -23 6 0 11 10 13 23 2 15 -2 22 -13 22
-11 0 -15 -7 -13 -22z"/>
<path d="M2365 3769 c-46 -43 -55 -59 -31 -59 12 0 96 82 96 95 0 15 -25 1
-65 -36z"/>
<path d="M2372 3313 c4 -22 43 -25 43 -3 0 8 -11 16 -23 18 -19 3 -23 0 -20
-15z"/>
<path d="M5304 3325 c-7 -18 3 -35 21 -35 21 0 28 19 15 35 -16 19 -29 19 -36
0z"/>
<path d="M4904 2997 c-8 -22 11 -46 26 -31 7 7 5 17 -4 30 -14 18 -15 18 -22
1z"/>
<path d="M2780 2980 c0 -11 7 -23 16 -27 20 -8 36 17 22 34 -16 20 -38 15 -38
-7z"/>
<path d="M3835 2619 c-13 -40 36 -54 59 -16 8 14 8 20 -4 27 -25 16 -48 11
-55 -11z"/>
<path d="M3410 2600 c0 -5 5 -10 10 -10 6 0 10 5 10 10 0 6 -4 10 -10 10 -5 0
-10 -4 -10 -10z"/>
<path d="M4270 2606 c0 -11 9 -16 26 -16 31 0 28 23 -4 28 -15 2 -22 -2 -22
-12z"/>
<path d="M1607 4440 c-83 -26 -143 -115 -135 -201 9 -94 82 -170 170 -176 63
-5 114 20 162 80 28 35 31 46 31 107 0 60 -4 73 -30 111 -47 66 -132 100 -198
79z"/>
<path d="M6006 4435 c-77 -27 -126 -96 -126 -179 0 -58 14 -93 53 -134 79 -83
191 -82 264 1 87 99 59 246 -57 305 -51 25 -79 27 -134 7z"/>
<path d="M1007 4310 c-50 -40 -43 -116 13 -145 44 -23 86 -11 111 28 27 44 24
74 -10 108 -35 35 -77 38 -114 9z"/>
<path d="M6599 4301 c-35 -35 -38 -77 -9 -114 60 -77 187 -6 150 83 -27 65
-92 79 -141 31z"/>
<path d="M3794 2096 c-38 -38 -43 -70 -19 -116 19 -37 43 -50 92 -50 71 0 116
74 86 137 -32 69 -106 82 -159 29z"/>
<path d="M4015 940 c10 -11 23 -20 28 -20 6 0 2 9 -8 20 -10 11 -23 20 -28 20
-6 0 -2 -9 8 -20z"/>
</g>
</svg>
